<svg xmlns="http://www.w3.org/2000/svg" id="Layer_1" data-name="Layer 1" viewBox="0 0 4096 4096">
    <defs>
        <style>.cls-1{fill:url(#linear-gradient)}.cls-2{fill:#fff}</style>
        <linearGradient id="linear-gradient" x1="2048" x2="2048" y2="4096" gradientUnits="userSpaceOnUse">
            <stop offset="0" stop-color="#e30917"/>
            <stop offset=".2" stop-color="#fc8d2c"/>
            <stop offset=".38" stop-color="#ffed44"/>
            <stop offset=".61" stop-color="#0a7e30"/>
            <stop offset=".82" stop-color="#004ffe"/>
            <stop offset="1" stop-color="#780685"/>
        </linearGradient>
    </defs>
    <rect width="4096" height="4096" class="cls-1"/>
    <path d="M2851.7,822.67q-39.57,65.6-108.72,198.76-21.72,61.64-77,174.91-11.92,17.91-31.64,17.89,1.91,0-190.71-70.2t-317.17-70.2q-363.64,0-363.62,319.32,0,177.82,254.57,310.14,428.22,223.18,473.65,256.77,254.55,203.51,254.58,549.17,0,442.55-349.49,697.32-314,229.17-772.06,229.12-213.3,0-229.07-47.38-7.9-75-35.54-219.18-15.8-59.24-49.34-177.7a104.77,104.77,0,0,1-5.94-33.54q0-27.63,29.59-27.64,47.31,0,144.93,9.36t146.93,9.36q611.4,0,611.43-394.29,0-193.56-246.58-335.79-449.71-256.81-459.62-266.71-248.55-201.47-248.52-541.22,0-367.38,241.11-588.66Q1758.62,609,2132.24,609q158.1,0,363.68,51,223.32,56.89,336,137.24Q2841.75,805.07,2851.7,822.67Z"
          class="cls-2"/>
</svg>