<svg xmlns="http://www.w3.org/2000/svg" xmlns:svg="http://www.w3.org/2000/svg" id="SVGRoot" width="1024" height="1024" version="1.1" viewBox="0 0 1024 1024"><defs id="defs2062"><linearGradient id="linear-gradient" x1="-396.95" x2="4492.95" y1="748" y2="3348" gradientTransform="matrix(2.5006105,0,0,2.5006105,281.61983,-2790.3803)" gradientUnits="userSpaceOnUse"><stop id="stop4" offset="0" stop-color="#6f91a4"/><stop id="stop6" offset="1" stop-color="#00edff"/></linearGradient><filter style="color-interpolation-filters:sRGB" id="filter927" width="1.055" height="1.055" x="-.028" y="-.028"><feGaussianBlur id="feGaussianBlur929" stdDeviation="117.863"/></filter></defs><g id="layer1"><rect id="rect11" width="10240" height="10240" x="282.87" y="-2789.13" class="cls-1" style="fill:url(#linear-gradient);stroke-width:2.50061;filter:url(#filter927)" transform="matrix(0.09476444,0,0,0.09476444,-7.2299532e-7,291.11632)"/><path id="path13" d="M 996.95695,27.042923 V 996.95697 H 27.042951 V 27.042923 H 996.95695 m 0.23692,-0.236911 H 26.80604 V 997.19388 h 970.38783 z" style="stroke-width:.236911"/><path id="path15" d="m 702.40539,221.70566 q -9.37457,15.54137 -25.75698,47.08845 -5.1457,14.6032 -18.24215,41.43812 -2.82398,4.24308 -7.49587,4.23834 0.4525,0 -45.18131,-16.63116 -45.63382,-16.63116 -75.14109,-16.63116 -86.15035,0 -86.14562,75.64808 0,42.13227 60.31046,73.47798 101.45007,52.87382 112.21294,60.83166 60.30572,48.21378 60.31283,130.10447 0,104.84501 -82.79806,165.20284 -74.39008,54.29292 -182.90958,54.28108 -50.53314,0 -54.26923,-11.22485 -1.87159,-17.76833 -8.41982,-51.92618 -3.74319,-14.03461 -11.68919,-42.0991 a 24.821176,24.821176 0 0 1 -1.40725,-7.946 q 0,-6.54585 7.0102,-6.54822 11.20826,0 34.33552,2.21749 23.12726,2.21749 34.80935,2.21749 144.84744,0 144.85455,-93.41168 0,-45.85651 -58.41754,-79.55238 Q 391.83626,491.6398 389.48848,489.29438 330.60422,441.5639 330.61133,361.07335 q 0,-87.0364 57.12163,-139.46008 55.70965,-50.5284 144.22437,-50.5284 37.45565,0 86.15983,12.08247 52.90699,13.47787 79.60213,32.51367 2.32883,1.85502 4.6861,6.02465 z" class="cls-2" style="fill:#8eeff4;fill-opacity:1;stroke:#000;stroke-width:.497513;stroke-dasharray:none;stroke-opacity:1"/></g></svg>