<?xml version="1.0" encoding="UTF-8" standalone="no"?>
<!-- Created with Inkscape (http://www.inkscape.org/) -->

<svg
   width="1200mm"
   height="200mm"
   viewBox="0 0 1200 200"
   version="1.1"
   id="SVGRoot"
   sodipodi:docname="textandlogo.svg"
   xml:space="preserve"
   inkscape:version="1.2.2 (b0a8486541, 2022-12-01)"
   xmlns:inkscape="http://www.inkscape.org/namespaces/inkscape"
   xmlns:sodipodi="http://sodipodi.sourceforge.net/DTD/sodipodi-0.dtd"
   xmlns:xlink="http://www.w3.org/1999/xlink"
   xmlns="http://www.w3.org/2000/svg"
   xmlns:svg="http://www.w3.org/2000/svg"><sodipodi:namedview
     id="namedview128"
     pagecolor="#000000"
     bordercolor="#999999"
     borderopacity="1"
     inkscape:showpageshadow="0"
     inkscape:pageopacity="1.0"
     inkscape:pagecheckerboard="1"
     inkscape:deskcolor="#505050"
     inkscape:document-units="mm"
     showgrid="false"
     inkscape:zoom="0.44631734"
     inkscape:cx="2773.8111"
     inkscape:cy="1494.4524"
     inkscape:window-width="3840"
     inkscape:window-height="2067"
     inkscape:window-x="0"
     inkscape:window-y="0"
     inkscape:window-maximized="1"
     inkscape:current-layer="layer1"
     inkscape:pageshadow="0" /><defs
     id="defs123"><rect
       x="814.5258"
       y="131.96565"
       width="3608.2957"
       height="475.64273"
       id="rect449" /><linearGradient
       id="linear-gradient"
       x1="-396.95001"
       y1="748"
       x2="4492.9502"
       y2="3348"
       gradientUnits="userSpaceOnUse"
       gradientTransform="matrix(2.5006105,0,0,2.5006105,281.61983,-2790.3803)"><stop
         offset="0"
         stop-color="#6f91a4"
         id="stop4" /><stop
         offset="1"
         stop-color="#00edff"
         id="stop6" /></linearGradient><filter
       inkscape:collect="always"
       style="color-interpolation-filters:sRGB"
       id="filter927"
       x="-0.027624037"
       y="-0.027624037"
       width="1.0552481"
       height="1.0552481"><feGaussianBlur
         inkscape:collect="always"
         stdDeviation="117.86256"
         id="feGaussianBlur929" /></filter><linearGradient
       inkscape:collect="always"
       xlink:href="#linear-gradient"
       id="linearGradient1069"
       x1="216.47456"
       y1="92.373428"
       x2="1140.1875"
       y2="92.373428"
       gradientUnits="userSpaceOnUse"
       gradientTransform="matrix(1.446556,0,0,1.446556,-96.668017,-36.433602)" /><linearGradient
       inkscape:collect="always"
       xlink:href="#linear-gradient"
       id="linearGradient1500"
       gradientUnits="userSpaceOnUse"
       gradientTransform="matrix(1.446556,0,0,1.446556,-96.668017,-36.433602)"
       x1="216.47456"
       y1="92.373428"
       x2="1140.1875"
       y2="92.373428" /><linearGradient
       inkscape:collect="always"
       xlink:href="#linear-gradient"
       id="linearGradient1502"
       gradientUnits="userSpaceOnUse"
       gradientTransform="matrix(1.446556,0,0,1.446556,-96.668017,-36.433602)"
       x1="216.47456"
       y1="92.373428"
       x2="1140.1875"
       y2="92.373428" /><linearGradient
       inkscape:collect="always"
       xlink:href="#linear-gradient"
       id="linearGradient1504"
       gradientUnits="userSpaceOnUse"
       gradientTransform="matrix(1.446556,0,0,1.446556,-96.668017,-36.433602)"
       x1="216.47456"
       y1="92.373428"
       x2="1140.1875"
       y2="92.373428" /><linearGradient
       inkscape:collect="always"
       xlink:href="#linear-gradient"
       id="linearGradient1506"
       gradientUnits="userSpaceOnUse"
       gradientTransform="matrix(1.446556,0,0,1.446556,-96.668017,-36.433602)"
       x1="216.47456"
       y1="92.373428"
       x2="1140.1875"
       y2="92.373428" /><linearGradient
       inkscape:collect="always"
       xlink:href="#linear-gradient"
       id="linearGradient1508"
       gradientUnits="userSpaceOnUse"
       gradientTransform="matrix(1.446556,0,0,1.446556,-96.668017,-36.433602)"
       x1="216.47456"
       y1="92.373428"
       x2="1140.1875"
       y2="92.373428" /><linearGradient
       inkscape:collect="always"
       xlink:href="#linear-gradient"
       id="linearGradient1510"
       gradientUnits="userSpaceOnUse"
       gradientTransform="matrix(1.446556,0,0,1.446556,-96.668017,-36.433602)"
       x1="216.47456"
       y1="92.373428"
       x2="1140.1875"
       y2="92.373428" /><linearGradient
       inkscape:collect="always"
       xlink:href="#linear-gradient"
       id="linearGradient1512"
       gradientUnits="userSpaceOnUse"
       gradientTransform="matrix(1.446556,0,0,1.446556,-96.668017,-36.433602)"
       x1="216.47456"
       y1="92.373428"
       x2="1140.1875"
       y2="92.373428" /><linearGradient
       inkscape:collect="always"
       xlink:href="#linear-gradient"
       id="linearGradient1514"
       gradientUnits="userSpaceOnUse"
       gradientTransform="matrix(1.446556,0,0,1.446556,-96.668017,-36.433602)"
       x1="216.47456"
       y1="92.373428"
       x2="1140.1875"
       y2="92.373428" /><linearGradient
       inkscape:collect="always"
       xlink:href="#linear-gradient"
       id="linearGradient1516"
       gradientUnits="userSpaceOnUse"
       gradientTransform="matrix(1.446556,0,0,1.446556,-96.668017,-36.433602)"
       x1="216.47456"
       y1="92.373428"
       x2="1140.1875"
       y2="92.373428" /><linearGradient
       inkscape:collect="always"
       xlink:href="#linear-gradient"
       id="linearGradient1518"
       gradientUnits="userSpaceOnUse"
       gradientTransform="matrix(1.446556,0,0,1.446556,-96.668017,-36.433602)"
       x1="216.47456"
       y1="92.373428"
       x2="1140.1875"
       y2="92.373428" /><linearGradient
       inkscape:collect="always"
       xlink:href="#linear-gradient"
       id="linearGradient1520"
       gradientUnits="userSpaceOnUse"
       gradientTransform="matrix(1.446556,0,0,1.446556,-96.668017,-36.433602)"
       x1="216.47456"
       y1="92.373428"
       x2="1140.1875"
       y2="92.373428" /><linearGradient
       inkscape:collect="always"
       xlink:href="#linear-gradient"
       id="linearGradient1522"
       gradientUnits="userSpaceOnUse"
       gradientTransform="matrix(1.446556,0,0,1.446556,-96.668017,-36.433602)"
       x1="216.47456"
       y1="92.373428"
       x2="1140.1875"
       y2="92.373428" /><linearGradient
       inkscape:collect="always"
       xlink:href="#linear-gradient"
       id="linearGradient1524"
       gradientUnits="userSpaceOnUse"
       gradientTransform="matrix(1.446556,0,0,1.446556,-96.668017,-36.433602)"
       x1="216.47456"
       y1="92.373428"
       x2="1140.1875"
       y2="92.373428" /><linearGradient
       inkscape:collect="always"
       xlink:href="#linear-gradient"
       id="linearGradient1526"
       gradientUnits="userSpaceOnUse"
       gradientTransform="matrix(1.446556,0,0,1.446556,-96.668017,-36.433602)"
       x1="216.47456"
       y1="92.373428"
       x2="1140.1875"
       y2="92.373428" /><linearGradient
       inkscape:collect="always"
       xlink:href="#linear-gradient"
       id="linearGradient1528"
       gradientUnits="userSpaceOnUse"
       gradientTransform="matrix(1.446556,0,0,1.446556,-96.668017,-36.433602)"
       x1="216.47456"
       y1="92.373428"
       x2="1140.1875"
       y2="92.373428" /><filter
       inkscape:collect="always"
       style="color-interpolation-filters:sRGB"
       id="filter1599"
       x="-0.024170969"
       y="-0.1991063"
       width="1.0483419"
       height="1.3982126"><feGaussianBlur
         inkscape:collect="always"
         stdDeviation="9.3281383"
         id="feGaussianBlur1601" /></filter></defs><g
     inkscape:label="Layer 1"
     inkscape:groupmode="layer"
     id="layer1"><g
       aria-label="SilverCraftBot"
       id="text455"
       style="font-size:145.084px;fill:url(#linearGradient1069);stroke:none;stroke-width:1.14254;filter:url(#filter1599)"><path
         d="m 282.47873,123.95766 q 0,13.78298 -10.0108,21.47243 -10.01079,7.68945 -26.98562,7.68945 -8.70504,0 -16.10433,-1.30575 -7.39928,-1.30576 -12.33214,-3.6271 v -12.47723 q 5.22303,2.32135 12.91248,4.20744 7.83454,1.88609 16.10432,1.88609 11.60672,0 17.41008,-4.4976 5.94845,-4.49761 5.94845,-12.18706 0,-5.07794 -2.17626,-8.55996 -2.17626,-3.48201 -7.54437,-6.38369 -5.22302,-3.04677 -14.65348,-6.3837 -13.20265,-4.787771 -20.0216,-11.751803 -6.67386,-6.964032 -6.67386,-19.006004 0,-8.269788 4.20744,-14.073148 4.20743,-5.948444 11.60672,-9.140292 7.54436,-3.191848 17.26499,-3.191848 8.55996,0 15.66907,1.595924 7.10912,1.595924 12.91248,4.207436 l -4.06235,11.171468 q -5.36811,-2.321344 -11.75181,-3.917268 -6.23861,-1.595924 -13.05756,-1.595924 -9.72062,0 -14.65348,4.207436 -4.93286,4.062352 -4.93286,10.8813 0,5.223024 2.17626,8.70504 2.17626,3.482016 7.10912,6.238612 4.93286,2.756596 13.34773,5.948444 9.14029,3.336932 15.3789,7.254197 6.3837,3.77219 9.57555,9.1403 3.33693,5.3681 3.33693,13.49281 z"
         id="path270"
         style="stroke-width:1.143;stroke-dasharray:none;stroke:none;stroke-opacity:1" /><path
         d="m 308.15857,44.741793 q 2.90168,0 5.07794,2.031176 2.32134,1.886092 2.32134,6.093528 0,4.062352 -2.32134,6.093528 -2.17626,2.031176 -5.07794,2.031176 -3.19185,0 -5.36811,-2.031176 -2.17626,-2.031176 -2.17626,-6.093528 0,-4.207436 2.17626,-6.093528 2.17626,-2.031176 5.36811,-2.031176 z m 6.23861,29.161884 V 151.6687 H 301.62979 V 73.903677 Z"
         id="path272"
         style="stroke-width:1.143;stroke-dasharray:none;stroke:none;stroke-opacity:1" /><path
         d="M 351.82876,151.6687 H 339.06137 V 41.404861 h 12.76739 z"
         id="path274"
         style="stroke-width:1.143;stroke-dasharray:none;stroke:none;stroke-opacity:1" /><path
         d="M 393.61286,151.6687 364.16081,73.903677 h 13.6379 l 16.53957,45.846543 q 1.16068,3.19185 2.46643,7.10912 1.30576,3.91727 2.32135,7.54437 1.01558,3.48201 1.45084,5.94844 h 0.58033 q 0.58034,-2.46643 1.59593,-6.09353 1.16067,-3.6271 2.46642,-7.54437 1.45084,-3.91726 2.46643,-6.96403 l 16.53958,-45.846543 h 13.63789 L 408.26635,151.6687 Z"
         id="path276"
         style="stroke-width:1.143;stroke-dasharray:none;stroke:none;stroke-opacity:1" /><path
         d="m 480.22795,72.452837 q 10.01079,0 17.11991,4.35252 7.2542,4.35252 11.02638,12.33214 3.91727,7.834536 3.91727,18.425673 v 7.68945 h -53.24583 q 0.29017,13.20264 6.67387,20.16667 6.52878,6.81895 18.1355,6.81895 7.39928,0 13.05756,-1.30575 5.80336,-1.45084 11.89688,-4.06236 v 11.17147 q -5.94844,2.61151 -11.7518,3.77219 -5.80336,1.30575 -13.78298,1.30575 -11.02638,0 -19.58634,-4.4976 -8.41487,-4.49761 -13.20264,-13.34773 -4.64269,-8.99521 -4.64269,-21.90768 0,-12.7674 4.20743,-21.907689 4.35252,-9.140292 12.04198,-14.073148 7.83453,-4.932856 18.1355,-4.932856 z m -0.14509,10.446048 q -9.14029,0 -14.5084,5.948444 -5.22302,5.80336 -6.23861,16.249411 h 39.60793 q -0.14508,-9.865715 -4.64269,-15.959243 -4.4976,-6.238612 -14.21823,-6.238612 z"
         id="path278"
         style="stroke-width:1.143;stroke-dasharray:none;stroke:none;stroke-opacity:1" /><path
         d="m 568.2938,72.452837 q 2.17626,0 4.64269,0.290168 2.61151,0.145084 4.4976,0.580336 l -1.59592,11.751804 q -1.8861,-0.435252 -4.20744,-0.72542 -2.17626,-0.290168 -4.20744,-0.290168 -5.94844,0 -11.17146,3.336932 -5.22303,3.191848 -8.41488,9.140292 -3.04676,5.803359 -3.04676,13.637899 V 151.6687 H 532.0228 V 73.903677 h 10.44605 l 1.45084,14.218232 h 0.58033 q 3.77219,-6.383696 9.72063,-11.026384 5.94844,-4.642688 14.07315,-4.642688 z"
         id="path280"
         style="stroke-width:1.143;stroke-dasharray:none;stroke:none;stroke-opacity:1" /><path
         d="m 638.07922,58.089521 q -16.68466,0 -26.26021,11.171468 -9.57554,11.171468 -9.57554,30.612724 0,19.296177 8.85012,30.612727 8.99521,11.17147 26.84054,11.17147 6.81895,0 12.91248,-1.16068 6.09353,-1.16067 11.89689,-2.90168 v 11.31656 q -5.80336,2.17626 -12.04197,3.19184 -6.09353,1.01559 -14.65349,1.01559 -15.81415,0 -26.40529,-6.52878 -10.59113,-6.52878 -15.95924,-18.57075 -5.22302,-12.04197 -5.22302,-28.291381 0,-15.669072 5.65828,-27.56596 5.80336,-12.041972 16.97482,-18.715836 11.17147,-6.818948 27.13071,-6.818948 16.39449,0 28.58155,6.093528 l -5.22302,11.026384 q -4.78778,-2.17626 -10.73622,-3.917268 -5.80336,-1.741008 -12.76739,-1.741008 z"
         id="path282"
         style="stroke-width:1.143;stroke-dasharray:none;stroke:none;stroke-opacity:1" /><path
         d="m 719.90659,72.452837 q 2.17626,0 4.64269,0.290168 2.61151,0.145084 4.4976,0.580336 l -1.59592,11.751804 q -1.88609,-0.435252 -4.20744,-0.72542 -2.17626,-0.290168 -4.20743,-0.290168 -5.94845,0 -11.17147,3.336932 -5.22302,3.191848 -8.41487,9.140292 -3.04677,5.803359 -3.04677,13.637899 V 151.6687 H 683.63559 V 73.903677 h 10.44605 l 1.45084,14.218232 h 0.58034 q 3.77218,-6.383696 9.72062,-11.026384 5.94845,-4.642688 14.07315,-4.642688 z"
         id="path284"
         style="stroke-width:1.143;stroke-dasharray:none;stroke:none;stroke-opacity:1" /><path
         d="m 770.10562,72.597921 q 14.21823,0 21.03718,6.238612 6.81895,6.238612 6.81895,19.876508 V 151.6687 h -9.28538 l -2.46643,-11.02638 h -0.58033 q -5.07794,6.38369 -10.73622,9.43046 -5.51319,3.04676 -15.3789,3.04676 -10.59114,0 -17.55517,-5.51319 -6.96403,-5.65828 -6.96403,-17.55516 0,-11.60672 9.14029,-17.84534 9.14029,-6.38369 28.1463,-6.96403 l 13.20264,-0.43525 v -4.64269 q 0,-9.720627 -4.20743,-13.492811 -4.20744,-3.772184 -11.89689,-3.772184 -6.09353,0 -11.60672,1.886092 -5.51319,1.741008 -10.30097,4.062352 l -3.91726,-9.575544 q 5.07794,-2.756596 12.04197,-4.642688 6.96403,-2.031176 14.5084,-2.031176 z m 3.77218,41.494029 q -14.5084,0.58033 -20.16667,4.64268 -5.5132,4.06236 -5.5132,11.46164 0,6.52878 3.91727,9.57554 4.06235,3.04677 10.30097,3.04677 9.86571,0 16.39449,-5.36811 6.52878,-5.51319 6.52878,-16.82974 v -6.96404 z"
         id="path286"
         style="stroke-width:1.143;stroke-dasharray:none;stroke:none;stroke-opacity:1" /><path
         d="M 857.88153,83.769389 H 838.29519 V 151.6687 h -12.7674 V 83.769389 H 811.8899 v -5.948444 l 13.63789,-4.35252 v -4.497604 q 0,-15.088736 6.67387,-21.617516 6.67386,-6.673864 18.57075,-6.673864 4.64269,0 8.41487,0.870504 3.91727,0.72542 6.67387,1.741008 l -3.33694,10.010796 q -2.32134,-0.72542 -5.3681,-1.45084 -3.04677,-0.72542 -6.23862,-0.72542 -6.38369,0 -9.57554,4.35252 -3.04676,4.207436 -3.04676,13.347728 v 5.07794 h 19.58634 z"
         id="path288"
         style="stroke-width:1.143;stroke-dasharray:none;stroke:none;stroke-opacity:1" /><path
         d="m 897.92469,142.67349 q 2.90168,0 5.94844,-0.43525 3.04677,-0.58033 4.93286,-1.16067 v 9.72063 q -2.03118,1.01559 -5.80336,1.59592 -3.77219,0.72542 -7.2542,0.72542 -6.09353,0 -11.31655,-2.03117 -5.07794,-2.17626 -8.26979,-7.39929 -3.19185,-5.22302 -3.19185,-14.65348 V 83.769389 h -11.02638 v -6.093528 l 11.17146,-5.07794 5.07794,-16.539576 h 7.54437 v 17.845332 h 22.48802 v 9.865712 h -22.48802 v 44.976041 q 0,7.10912 3.33693,10.59113 3.48202,3.33693 8.85013,3.33693 z"
         id="path290"
         style="stroke-width:1.143;stroke-dasharray:none;stroke:none;stroke-opacity:1" /><path
         d="m 955.66816,48.078725 q 19.44126,0 29.30697,5.80336 10.0108,5.658276 10.0108,19.876508 0,9.140292 -5.07794,15.23382 -5.07794,5.948444 -14.65349,7.689452 v 0.72542 q 6.52878,1.015588 11.75181,3.772185 5.3681,2.7566 8.41487,7.83454 3.04676,5.07794 3.04676,13.20264 0,14.07315 -9.72063,21.7626 -9.57554,7.68945 -26.2602,7.68945 H 926.07103 V 48.078725 Z m 2.61151,44.105536 q 13.34773,0 18.28059,-4.207436 4.93285,-4.35252 4.93285,-12.767392 0,-8.559956 -6.09352,-12.187056 -5.94845,-3.772184 -19.15109,-3.772184 h -17.11991 v 32.934068 z m -19.15108,10.881299 v 37.57676 h 20.89209 q 13.78298,0 19.15109,-5.36811 5.36811,-5.36811 5.36811,-14.07315 0,-8.1247 -5.65828,-13.05756 -5.51319,-5.07794 -19.87651,-5.07794 z"
         id="path292"
         style="stroke-width:1.143;stroke-dasharray:none;stroke:none;stroke-opacity:1" /><path
         d="m 1086.2437,112.64111 q 0,19.29617 -9.8657,29.8873 -9.7207,10.59113 -26.4053,10.59113 -10.301,0 -18.4257,-4.64269 -7.9796,-4.78777 -12.6223,-13.78298 -4.6427,-9.14029 -4.6427,-22.05276 0,-19.296177 9.7206,-29.742225 9.7207,-10.446048 26.4053,-10.446048 10.5912,0 18.5708,4.787772 8.1247,4.642688 12.6223,13.637896 4.6427,8.850124 4.6427,21.762605 z m -58.7591,0 q 0,13.78298 5.3682,21.90768 5.5131,7.97962 17.41,7.97962 11.7518,0 17.265,-7.97962 5.5132,-8.1247 5.5132,-21.90768 0,-13.782985 -5.5132,-21.617521 -5.5132,-7.834536 -17.41,-7.834536 -11.8969,0 -17.265,7.834536 -5.3682,7.834536 -5.3682,21.617521 z"
         id="path294"
         style="stroke-width:1.143;stroke-dasharray:none;stroke:none;stroke-opacity:1" /><path
         d="m 1132.3803,142.67349 q 2.9017,0 5.9485,-0.43525 3.0467,-0.58033 4.9328,-1.16067 v 9.72063 q -2.0312,1.01559 -5.8033,1.59592 -3.7722,0.72542 -7.2542,0.72542 -6.0936,0 -11.3166,-2.03117 -5.0779,-2.17626 -8.2698,-7.39929 -3.1918,-5.22302 -3.1918,-14.65348 V 83.769389 h -11.0264 v -6.093528 l 11.1715,-5.07794 5.0779,-16.539576 h 7.5444 v 17.845332 h 22.488 v 9.865712 h -22.488 v 44.976041 q 0,7.10912 3.3369,10.59113 3.482,3.33693 8.8501,3.33693 z"
         id="path296"
         style="stroke-width:1.143;stroke-dasharray:none;stroke:none;stroke-opacity:1" /></g><g
       aria-label="SilverCraftBot"
       id="text455-7"
       style="font-size:145.084px;fill:url(#linearGradient1528);stroke:none;stroke-width:1.14254"
       transform="translate(0.21243064,0.14843131)"><path
         d="m 282.47873,123.95766 q 0,13.78298 -10.0108,21.47243 -10.01079,7.68945 -26.98562,7.68945 -8.70504,0 -16.10433,-1.30575 -7.39928,-1.30576 -12.33214,-3.6271 v -12.47723 q 5.22303,2.32135 12.91248,4.20744 7.83454,1.88609 16.10432,1.88609 11.60672,0 17.41008,-4.4976 5.94845,-4.49761 5.94845,-12.18706 0,-5.07794 -2.17626,-8.55996 -2.17626,-3.48201 -7.54437,-6.38369 -5.22302,-3.04677 -14.65348,-6.3837 -13.20265,-4.787771 -20.0216,-11.751803 -6.67386,-6.964032 -6.67386,-19.006004 0,-8.269788 4.20744,-14.073148 4.20743,-5.948444 11.60672,-9.140292 7.54436,-3.191848 17.26499,-3.191848 8.55996,0 15.66907,1.595924 7.10912,1.595924 12.91248,4.207436 l -4.06235,11.171468 q -5.36811,-2.321344 -11.75181,-3.917268 -6.23861,-1.595924 -13.05756,-1.595924 -9.72062,0 -14.65348,4.207436 -4.93286,4.062352 -4.93286,10.8813 0,5.223024 2.17626,8.70504 2.17626,3.482016 7.10912,6.238612 4.93286,2.756596 13.34773,5.948444 9.14029,3.336932 15.3789,7.254197 6.3837,3.77219 9.57555,9.1403 3.33693,5.3681 3.33693,13.49281 z"
         id="path270-5"
         style="fill:url(#linearGradient1500);stroke:none;stroke-width:1.143;stroke-dasharray:none;stroke-opacity:1" /><path
         d="m 308.15857,44.741793 q 2.90168,0 5.07794,2.031176 2.32134,1.886092 2.32134,6.093528 0,4.062352 -2.32134,6.093528 -2.17626,2.031176 -5.07794,2.031176 -3.19185,0 -5.36811,-2.031176 -2.17626,-2.031176 -2.17626,-6.093528 0,-4.207436 2.17626,-6.093528 2.17626,-2.031176 5.36811,-2.031176 z m 6.23861,29.161884 V 151.6687 H 301.62979 V 73.903677 Z"
         id="path272-3"
         style="fill:url(#linearGradient1502);stroke:none;stroke-width:1.143;stroke-dasharray:none;stroke-opacity:1" /><path
         d="M 351.82876,151.6687 H 339.06137 V 41.404861 h 12.76739 z"
         id="path274-5"
         style="fill:url(#linearGradient1504);stroke:none;stroke-width:1.143;stroke-dasharray:none;stroke-opacity:1" /><path
         d="M 393.61286,151.6687 364.16081,73.903677 h 13.6379 l 16.53957,45.846543 q 1.16068,3.19185 2.46643,7.10912 1.30576,3.91727 2.32135,7.54437 1.01558,3.48201 1.45084,5.94844 h 0.58033 q 0.58034,-2.46643 1.59593,-6.09353 1.16067,-3.6271 2.46642,-7.54437 1.45084,-3.91726 2.46643,-6.96403 l 16.53958,-45.846543 h 13.63789 L 408.26635,151.6687 Z"
         id="path276-6"
         style="fill:url(#linearGradient1506);stroke:none;stroke-width:1.143;stroke-dasharray:none;stroke-opacity:1" /><path
         d="m 480.22795,72.452837 q 10.01079,0 17.11991,4.35252 7.2542,4.35252 11.02638,12.33214 3.91727,7.834536 3.91727,18.425673 v 7.68945 h -53.24583 q 0.29017,13.20264 6.67387,20.16667 6.52878,6.81895 18.1355,6.81895 7.39928,0 13.05756,-1.30575 5.80336,-1.45084 11.89688,-4.06236 v 11.17147 q -5.94844,2.61151 -11.7518,3.77219 -5.80336,1.30575 -13.78298,1.30575 -11.02638,0 -19.58634,-4.4976 -8.41487,-4.49761 -13.20264,-13.34773 -4.64269,-8.99521 -4.64269,-21.90768 0,-12.7674 4.20743,-21.907689 4.35252,-9.140292 12.04198,-14.073148 7.83453,-4.932856 18.1355,-4.932856 z m -0.14509,10.446048 q -9.14029,0 -14.5084,5.948444 -5.22302,5.80336 -6.23861,16.249411 h 39.60793 q -0.14508,-9.865715 -4.64269,-15.959243 -4.4976,-6.238612 -14.21823,-6.238612 z"
         id="path278-2"
         style="fill:url(#linearGradient1508);stroke:none;stroke-width:1.143;stroke-dasharray:none;stroke-opacity:1" /><path
         d="m 568.2938,72.452837 q 2.17626,0 4.64269,0.290168 2.61151,0.145084 4.4976,0.580336 l -1.59592,11.751804 q -1.8861,-0.435252 -4.20744,-0.72542 -2.17626,-0.290168 -4.20744,-0.290168 -5.94844,0 -11.17146,3.336932 -5.22303,3.191848 -8.41488,9.140292 -3.04676,5.803359 -3.04676,13.637899 V 151.6687 H 532.0228 V 73.903677 h 10.44605 l 1.45084,14.218232 h 0.58033 q 3.77219,-6.383696 9.72063,-11.026384 5.94844,-4.642688 14.07315,-4.642688 z"
         id="path280-9"
         style="fill:url(#linearGradient1510);stroke:none;stroke-width:1.143;stroke-dasharray:none;stroke-opacity:1" /><path
         d="m 638.07922,58.089521 q -16.68466,0 -26.26021,11.171468 -9.57554,11.171468 -9.57554,30.612724 0,19.296177 8.85012,30.612727 8.99521,11.17147 26.84054,11.17147 6.81895,0 12.91248,-1.16068 6.09353,-1.16067 11.89689,-2.90168 v 11.31656 q -5.80336,2.17626 -12.04197,3.19184 -6.09353,1.01559 -14.65349,1.01559 -15.81415,0 -26.40529,-6.52878 -10.59113,-6.52878 -15.95924,-18.57075 -5.22302,-12.04197 -5.22302,-28.291381 0,-15.669072 5.65828,-27.56596 5.80336,-12.041972 16.97482,-18.715836 11.17147,-6.818948 27.13071,-6.818948 16.39449,0 28.58155,6.093528 l -5.22302,11.026384 q -4.78778,-2.17626 -10.73622,-3.917268 -5.80336,-1.741008 -12.76739,-1.741008 z"
         id="path282-1"
         style="fill:url(#linearGradient1512);stroke:none;stroke-width:1.143;stroke-dasharray:none;stroke-opacity:1" /><path
         d="m 719.90659,72.452837 q 2.17626,0 4.64269,0.290168 2.61151,0.145084 4.4976,0.580336 l -1.59592,11.751804 q -1.88609,-0.435252 -4.20744,-0.72542 -2.17626,-0.290168 -4.20743,-0.290168 -5.94845,0 -11.17147,3.336932 -5.22302,3.191848 -8.41487,9.140292 -3.04677,5.803359 -3.04677,13.637899 V 151.6687 H 683.63559 V 73.903677 h 10.44605 l 1.45084,14.218232 h 0.58034 q 3.77218,-6.383696 9.72062,-11.026384 5.94845,-4.642688 14.07315,-4.642688 z"
         id="path284-2"
         style="fill:url(#linearGradient1514);stroke:none;stroke-width:1.143;stroke-dasharray:none;stroke-opacity:1" /><path
         d="m 770.10562,72.597921 q 14.21823,0 21.03718,6.238612 6.81895,6.238612 6.81895,19.876508 V 151.6687 h -9.28538 l -2.46643,-11.02638 h -0.58033 q -5.07794,6.38369 -10.73622,9.43046 -5.51319,3.04676 -15.3789,3.04676 -10.59114,0 -17.55517,-5.51319 -6.96403,-5.65828 -6.96403,-17.55516 0,-11.60672 9.14029,-17.84534 9.14029,-6.38369 28.1463,-6.96403 l 13.20264,-0.43525 v -4.64269 q 0,-9.720627 -4.20743,-13.492811 -4.20744,-3.772184 -11.89689,-3.772184 -6.09353,0 -11.60672,1.886092 -5.51319,1.741008 -10.30097,4.062352 l -3.91726,-9.575544 q 5.07794,-2.756596 12.04197,-4.642688 6.96403,-2.031176 14.5084,-2.031176 z m 3.77218,41.494029 q -14.5084,0.58033 -20.16667,4.64268 -5.5132,4.06236 -5.5132,11.46164 0,6.52878 3.91727,9.57554 4.06235,3.04677 10.30097,3.04677 9.86571,0 16.39449,-5.36811 6.52878,-5.51319 6.52878,-16.82974 v -6.96404 z"
         id="path286-7"
         style="fill:url(#linearGradient1516);stroke:none;stroke-width:1.143;stroke-dasharray:none;stroke-opacity:1" /><path
         d="M 857.88153,83.769389 H 838.29519 V 151.6687 h -12.7674 V 83.769389 H 811.8899 v -5.948444 l 13.63789,-4.35252 v -4.497604 q 0,-15.088736 6.67387,-21.617516 6.67386,-6.673864 18.57075,-6.673864 4.64269,0 8.41487,0.870504 3.91727,0.72542 6.67387,1.741008 l -3.33694,10.010796 q -2.32134,-0.72542 -5.3681,-1.45084 -3.04677,-0.72542 -6.23862,-0.72542 -6.38369,0 -9.57554,4.35252 -3.04676,4.207436 -3.04676,13.347728 v 5.07794 h 19.58634 z"
         id="path288-0"
         style="fill:url(#linearGradient1518);stroke:none;stroke-width:1.143;stroke-dasharray:none;stroke-opacity:1" /><path
         d="m 897.92469,142.67349 q 2.90168,0 5.94844,-0.43525 3.04677,-0.58033 4.93286,-1.16067 v 9.72063 q -2.03118,1.01559 -5.80336,1.59592 -3.77219,0.72542 -7.2542,0.72542 -6.09353,0 -11.31655,-2.03117 -5.07794,-2.17626 -8.26979,-7.39929 -3.19185,-5.22302 -3.19185,-14.65348 V 83.769389 h -11.02638 v -6.093528 l 11.17146,-5.07794 5.07794,-16.539576 h 7.54437 v 17.845332 h 22.48802 v 9.865712 h -22.48802 v 44.976041 q 0,7.10912 3.33693,10.59113 3.48202,3.33693 8.85013,3.33693 z"
         id="path290-9"
         style="fill:url(#linearGradient1520);stroke:none;stroke-width:1.143;stroke-dasharray:none;stroke-opacity:1" /><path
         d="m 955.66816,48.078725 q 19.44126,0 29.30697,5.80336 10.0108,5.658276 10.0108,19.876508 0,9.140292 -5.07794,15.23382 -5.07794,5.948444 -14.65349,7.689452 v 0.72542 q 6.52878,1.015588 11.75181,3.772185 5.3681,2.7566 8.41487,7.83454 3.04676,5.07794 3.04676,13.20264 0,14.07315 -9.72063,21.7626 -9.57554,7.68945 -26.2602,7.68945 H 926.07103 V 48.078725 Z m 2.61151,44.105536 q 13.34773,0 18.28059,-4.207436 4.93285,-4.35252 4.93285,-12.767392 0,-8.559956 -6.09352,-12.187056 -5.94845,-3.772184 -19.15109,-3.772184 h -17.11991 v 32.934068 z m -19.15108,10.881299 v 37.57676 h 20.89209 q 13.78298,0 19.15109,-5.36811 5.36811,-5.36811 5.36811,-14.07315 0,-8.1247 -5.65828,-13.05756 -5.51319,-5.07794 -19.87651,-5.07794 z"
         id="path292-3"
         style="fill:url(#linearGradient1522);stroke:none;stroke-width:1.143;stroke-dasharray:none;stroke-opacity:1" /><path
         d="m 1086.2437,112.64111 q 0,19.29617 -9.8657,29.8873 -9.7207,10.59113 -26.4053,10.59113 -10.301,0 -18.4257,-4.64269 -7.9796,-4.78777 -12.6223,-13.78298 -4.6427,-9.14029 -4.6427,-22.05276 0,-19.296177 9.7206,-29.742225 9.7207,-10.446048 26.4053,-10.446048 10.5912,0 18.5708,4.787772 8.1247,4.642688 12.6223,13.637896 4.6427,8.850124 4.6427,21.762605 z m -58.7591,0 q 0,13.78298 5.3682,21.90768 5.5131,7.97962 17.41,7.97962 11.7518,0 17.265,-7.97962 5.5132,-8.1247 5.5132,-21.90768 0,-13.782985 -5.5132,-21.617521 -5.5132,-7.834536 -17.41,-7.834536 -11.8969,0 -17.265,7.834536 -5.3682,7.834536 -5.3682,21.617521 z"
         id="path294-6"
         style="fill:url(#linearGradient1524);stroke:none;stroke-width:1.143;stroke-dasharray:none;stroke-opacity:1" /><path
         d="m 1132.3803,142.67349 q 2.9017,0 5.9485,-0.43525 3.0467,-0.58033 4.9328,-1.16067 v 9.72063 q -2.0312,1.01559 -5.8033,1.59592 -3.7722,0.72542 -7.2542,0.72542 -6.0936,0 -11.3166,-2.03117 -5.0779,-2.17626 -8.2698,-7.39929 -3.1918,-5.22302 -3.1918,-14.65348 V 83.769389 h -11.0264 v -6.093528 l 11.1715,-5.07794 5.0779,-16.539576 h 7.5444 v 17.845332 h 22.488 v 9.865712 h -22.488 v 44.976041 q 0,7.10912 3.3369,10.59113 3.482,3.33693 8.8501,3.33693 z"
         id="path296-0"
         style="fill:url(#linearGradient1526);stroke:none;stroke-width:1.143;stroke-dasharray:none;stroke-opacity:1" /></g><g
       inkscape:label="Layer 1"
       id="layer1-6"
       transform="matrix(0.1953125,0,0,0.1953125,0,8.1736301e-6)"><rect
         class="cls-1"
         x="282.87015"
         y="-2789.1299"
         width="10240"
         height="10240"
         id="rect11"
         style="fill:url(#linear-gradient);stroke-width:2.50061;filter:url(#filter927)"
         transform="matrix(0.09476444,0,0,0.09476444,-7.2299532e-7,291.11632)" /><path
         d="M 996.95695,27.042923 V 996.95697 H 27.042951 V 27.042923 H 996.95695 m 0.23692,-0.236911 H 26.80604 V 997.19388 h 970.38783 z"
         id="path13"
         style="stroke-width:0.236911" /><path
         class="cls-2"
         d="m 702.40539,221.70566 q -9.37457,15.54137 -25.75698,47.08845 -5.1457,14.6032 -18.24215,41.43812 -2.82398,4.24308 -7.49587,4.23834 0.4525,0 -45.18131,-16.63116 -45.63382,-16.63116 -75.14109,-16.63116 -86.15035,0 -86.14562,75.64808 0,42.13227 60.31046,73.47798 101.45007,52.87382 112.21294,60.83166 60.30572,48.21378 60.31283,130.10447 0,104.84501 -82.79806,165.20284 -74.39008,54.29292 -182.90958,54.28108 -50.53314,0 -54.26923,-11.22485 -1.87159,-17.76833 -8.41982,-51.92618 -3.74319,-14.03461 -11.68919,-42.0991 a 24.821176,24.821176 0 0 1 -1.40725,-7.946 q 0,-6.54585 7.0102,-6.54822 11.20826,0 34.33552,2.21749 23.12726,2.21749 34.80935,2.21749 144.84744,0 144.85455,-93.41168 0,-45.85651 -58.41754,-79.55238 Q 391.83626,491.6398 389.48848,489.29438 330.60422,441.5639 330.61133,361.07335 q 0,-87.0364 57.12163,-139.46008 55.70965,-50.5284 144.22437,-50.5284 37.45565,0 86.15983,12.08247 52.90699,13.47787 79.60213,32.51367 2.32883,1.85502 4.6861,6.02465 z"
         id="path15"
         style="fill:#8eeff4;fill-opacity:1;stroke:#000000;stroke-width:0.497513;stroke-dasharray:none;stroke-opacity:1" /></g></g></svg>
