<svg xmlns="http://www.w3.org/2000/svg" width="933.333" height="933.333" preserveAspectRatio="xMidYMid meet" version="1.0" viewBox="0 0 700 700"><metadata>Created by potrace 1.14, written by Peter Selinger 2001-2017</metadata><g fill="#000" stroke="none"><path d="M0 3500 l0 -3500 1889 0 1888 0 1609 929 1609 929 3 2571 2 2571 -3500 0 -3500 0 0 -3500z m3790 2446 c188 -10 481 -70 695 -143 129 -44 317 -136 355 -175 l31 -30 -24 -42 c-65 -111 -167 -310 -196 -381 -49 -120 -104 -228 -122 -239 -12 -7 -77 13 -245 73 -438 159 -631 188 -878 136 -264 -56 -408 -254 -393 -543 4 -82 9 -101 42 -169 45 -91 135 -186 245 -260 41 -27 210 -121 375 -208 549 -288 608 -325 712 -439 228 -251 328 -576 294 -956 -32 -359 -149 -624 -380 -864 -291 -300 -679 -484 -1156 -550 -310 -43 -686 -25 -740 34 -9 10 -22 60 -30 116 -27 179 -46 267 -96 451 -29 106 -48 191 -44 203 3 11 17 23 30 26 13 3 120 -2 237 -11 574 -47 949 28 1154 230 78 76 123 153 147 251 59 234 3 424 -177 591 -91 86 -132 112 -551 353 -467 268 -465 267 -558 361 -137 139 -230 305 -285 508 -24 90 -26 111 -26 321 -1 201 2 236 22 329 55 243 152 433 305 597 246 263 578 410 982 433 66 4 131 6 145 5 14 -2 72 -5 130 -8z" transform="translate(0.000000,700.000000) scale(0.100000,-0.100000)"/><path d="M5398 922 c-873 -504 -1585 -918 -1583 -921 4 -3 3118 1790 3170 1826 96 65 -213 -111 -1587 -905z" transform="translate(0.000000,700.000000) scale(0.100000,-0.100000)"/></g></svg>