<?xml version="1.0" encoding="UTF-8" standalone="no"?>
<!-- Created with Inkscape (http://www.inkscape.org/) -->

<svg
        width="1024.0px"
        height="1024.0px"
        viewBox="0 0 1024.0 1024.0"
        version="1.1"
        id="SVGRoot"
        sodipodi:docname="icon.svg"
        inkscape:version="1.2.2 (b0a8486541, 2022-12-01)"
        inkscape:export-filename="icon-512.png"
        inkscape:export-xdpi="48"
        inkscape:export-ydpi="48"
        xmlns:inkscape="http://www.inkscape.org/namespaces/inkscape"
        xmlns:sodipodi="http://sodipodi.sourceforge.net/DTD/sodipodi-0.dtd"
        xmlns="http://www.w3.org/2000/svg"
        xmlns:svg="http://www.w3.org/2000/svg">
    <sodipodi:namedview
            id="namedview2067"
            pagecolor="#ffffff"
            bordercolor="#000000"
            borderopacity="0.25"
            inkscape:showpageshadow="2"
            inkscape:pageopacity="0.0"
            inkscape:pagecheckerboard="0"
            inkscape:deskcolor="#d1d1d1"
            inkscape:document-units="px"
            showgrid="true"
            inkscape:zoom="0.64693624"
            inkscape:cx="570.38078"
            inkscape:cy="594.33987"
            inkscape:window-width="1444"
            inkscape:window-height="1236"
            inkscape:window-x="536"
            inkscape:window-y="689"
            inkscape:window-maximized="0"
            inkscape:current-layer="layer1">
        <inkscape:grid
                type="xygrid"
                id="grid2190"/>
    </sodipodi:namedview>
    <defs
            id="defs2062">
        <linearGradient
                id="linear-gradient"
                x1="-396.95001"
                y1="748"
                x2="4492.9502"
                y2="3348"
                gradientUnits="userSpaceOnUse"
                gradientTransform="matrix(2.5006105,0,0,2.5006105,281.61983,-2790.3803)">
            <stop offset="0" stop-color="#f15a24"/>
            <stop offset=".17" stop-color="#f15a26" stop-opacity=".99"/>
            <stop offset=".31" stop-color="#f25c2b" stop-opacity=".95"/>
            <stop offset=".43" stop-color="#f35e35" stop-opacity=".88"/>
            <stop offset=".54" stop-color="#f46142" stop-opacity=".78"/>
            <stop offset=".65" stop-color="#f66553" stop-opacity=".66"/>
            <stop offset=".75" stop-color="#f86a68" stop-opacity=".5"/>
            <stop offset=".86" stop-color="#fa7080" stop-opacity=".32"/>
            <stop offset=".95" stop-color="#fd779c" stop-opacity=".12"/>
            <stop offset="1" stop-color="#ff7bac" stop-opacity="0"/>
        </linearGradient>
        <filter
                inkscape:collect="always"
                style="color-interpolation-filters:sRGB"
                id="filter927"
                x="-0.027624037"
                y="-0.027624037"
                width="1.0552481"
                height="1.0552481">
            <feGaussianBlur
                    inkscape:collect="always"
                    stdDeviation="117.86256"
                    id="feGaussianBlur929"/>
        </filter>
    </defs>
    <g
            inkscape:label="Layer 1"
            inkscape:groupmode="layer"
            id="layer1">
        <rect
                class="cls-1"
                x="282.87015"
                y="-2789.1299"
                width="10240"
                height="10240"
                id="rect11"
                style="fill:url(#linear-gradient);stroke-width:2.50061;filter:url(#filter927)"
                transform="matrix(0.09476444,0,0,0.09476444,-7.2299532e-7,291.11632)"/>
        <path
                d="M 996.95695,27.042923 V 996.95697 H 27.042951 V 27.042923 H 996.95695 m 0.23692,-0.236911 H 26.80604 V 997.19388 h 970.38783 z"
                id="path13"
                style="stroke-width:0.236911"/>
        <path
                class="cls-2"
                d="m 702.40539,221.70566 q -9.37457,15.54137 -25.75698,47.08845 -5.1457,14.6032 -18.24215,41.43812 -2.82398,4.24308 -7.49587,4.23834 0.4525,0 -45.18131,-16.63116 -45.63382,-16.63116 -75.14109,-16.63116 -86.15035,0 -86.14562,75.64808 0,42.13227 60.31046,73.47798 101.45007,52.87382 112.21294,60.83166 60.30572,48.21378 60.31283,130.10447 0,104.84501 -82.79806,165.20284 -74.39008,54.29292 -182.90958,54.28108 -50.53314,0 -54.26923,-11.22485 -1.87159,-17.76833 -8.41982,-51.92618 -3.74319,-14.03461 -11.68919,-42.0991 a 24.821176,24.821176 0 0 1 -1.40725,-7.946 q 0,-6.54585 7.0102,-6.54822 11.20826,0 34.33552,2.21749 23.12726,2.21749 34.80935,2.21749 144.84744,0 144.85455,-93.41168 0,-45.85651 -58.41754,-79.55238 Q 391.83626,491.6398 389.48848,489.29438 330.60422,441.5639 330.61133,361.07335 q 0,-87.0364 57.12163,-139.46008 55.70965,-50.5284 144.22437,-50.5284 37.45565,0 86.15983,12.08247 52.90699,13.47787 79.60213,32.51367 2.32883,1.85502 4.6861,6.02465 z"
                id="path15"
                style="fill:#8eeff4;fill-opacity:1;stroke:#000000;stroke-width:0.497513;stroke-dasharray:none;stroke-opacity:1"/>
    </g>
</svg>
