<?xml version="1.0" standalone="no"?>
<!DOCTYPE svg PUBLIC "-//W3C//DTD SVG 20010904//EN"
 "http://www.w3.org/TR/2001/REC-SVG-20010904/DTD/svg10.dtd">
<svg version="1.0" xmlns="http://www.w3.org/2000/svg"
 width="4096.000000pt" height="4096.000000pt" viewBox="0 0 4096.000000 4096.000000"
 preserveAspectRatio="xMidYMid meet">
<metadata>
Created by potrace 1.14, written by Peter Selinger 2001-2017
</metadata>
<g transform="translate(0.000000,4096.000000) scale(0.100000,-0.100000)"
fill="#000000" stroke="none">
<path d="M0 20480 l0 -20480 20480 0 20480 0 0 20480 0 20480 -20480 0 -20480
0 0 -20480z m40950 0 l0 -20470 -13091 0 -13090 0 62 117 c538 1008 3508 6598
3506 6599 -1 1 -29 -2 -62 -7 -210 -29 -743 -76 -1140 -99 -472 -29 -1434 -23
-1875 11 -696 52 -1154 187 -1279 375 -34 52 -34 51 -57 244 -48 406 -157
1078 -290 1785 -48 257 -99 450 -376 1435 -229 811 -210 733 -212 885 -1 147
11 184 78 242 61 54 86 58 371 57 295 -1 524 -16 1220 -79 1003 -90 1172 -99
1810 -92 501 6 639 11 1020 42 1981 161 3347 715 4112 1667 243 302 446 698
559 1090 137 476 185 1107 119 1550 -49 324 -155 648 -312 948 -349 667 -967
1273 -1878 1842 -66 41 -543 317 -1060 613 -1171 670 -2239 1286 -2870 1653
-423 246 -835 496 -907 549 -42 32 -140 114 -218 182 -661 577 -1184 1245
-1551 1981 -359 719 -576 1475 -668 2325 -99 902 -47 1975 139 2870 378 1820
1332 3322 2812 4428 882 659 1933 1134 3076 1393 821 185 1612 263 2557 251
443 -5 654 -18 1080 -62 1564 -165 3411 -634 4645 -1180 468 -207 1022 -521
1177 -667 47 -45 163 -202 163 -221 0 -4 -53 -98 -118 -209 -362 -620 -935
-1698 -1014 -1908 -178 -478 -685 -1589 -766 -1682 -47 -52 -118 -95 -192
-114 -75 -19 -32 -31 -421 114 -506 189 -1765 647 -1954 712 -844 288 -1618
472 -2275 541 -617 64 -1370 14 -1950 -131 -601 -150 -1070 -405 -1430 -776
-290 -300 -479 -632 -615 -1079 -131 -434 -189 -1110 -130 -1514 131 -896 762
-1696 1900 -2408 205 -128 422 -247 1037 -569 2673 -1398 4052 -2148 4321
-2350 148 -112 399 -335 607 -541 112 -112 205 -203 206 -203 1 0 2433 4574
5405 10165 l5404 10164 2208 1 2207 0 0 -20470z"/>
</g>
</svg>
