<svg id="Layer_1" data-name="Layer 1" xmlns="http://www.w3.org/2000/svg" xmlns:xlink="http://www.w3.org/1999/xlink" viewBox="0 0 4096 4096"><defs><style>.cls-1{fill:url(#linear-gradient);}.cls-2{fill:#ddd;}</style><linearGradient id="linear-gradient" x1="649.19" y1="-374.81" x2="3446.81" y2="4470.81" gradientUnits="userSpaceOnUse"><stop offset="0" stop-color="#f15a24"/><stop offset="0.17" stop-color="#f15a26" stop-opacity="0.99"/><stop offset="0.31" stop-color="#f25c2b" stop-opacity="0.95"/><stop offset="0.43" stop-color="#f35e35" stop-opacity="0.88"/><stop offset="0.54" stop-color="#f46142" stop-opacity="0.78"/><stop offset="0.65" stop-color="#f66553" stop-opacity="0.66"/><stop offset="0.75" stop-color="#f86a68" stop-opacity="0.5"/><stop offset="0.86" stop-color="#fa7080" stop-opacity="0.32"/><stop offset="0.95" stop-color="#fd779c" stop-opacity="0.12"/><stop offset="1" stop-color="#ff7bac" stop-opacity="0"/></linearGradient></defs><rect class="cls-1" width="4096" height="4096"/><path class="cls-2" d="M2132.24,609q158.1,0,363.68,51,223.32,56.89,336,137.23,9.8,7.91,19.74,25.5-39.55,65.6-108.71,198.76-21.72,61.64-77,174.91-11.92,17.92-31.64,17.89,1.91,0-190.71-70.2t-317.17-70.2q-363.64,0-363.63,319.32,0,177.82,254.58,310.14,428.22,223.17,473.66,256.77,254.53,203.51,254.56,549.17,0,442.55-349.49,697.32-314,229.17-772,229.12-213.32,0-229.08-47.39-7.9-75-35.54-219.17-15.8-59.24-49.34-177.7a104.79,104.79,0,0,1-5.95-33.53q0-27.66,29.59-27.65,47.33,0,144.94,9.36t146.93,9.36q611.4,0,611.43-394.29,0-193.56-246.58-335.79-449.71-256.81-459.62-266.71-248.55-201.45-248.52-541.22,0-367.38,241.12-588.66Q1758.63,609,2132.24,609Z"/></svg>