<svg xmlns="http://www.w3.org/2000/svg" width="933.333" height="933.333" preserveAspectRatio="xMidYMid meet" version="1.0" viewBox="0 0 700 700"><metadata>Created by potrace 1.14, written by Peter Selinger 2001-2017</metadata><g fill="#000" stroke="none"><path d="M0 3500 l0 -3500 3500 0 3500 0 0 3500 0 3500 -3500 0 -3500 0 0 -3500z m3771 2450 c230 -17 508 -75 738 -155 161 -56 340 -152 354 -189 3 -8 -21 -63 -55 -123 -77 -138 -123 -230 -149 -296 -11 -28 -41 -96 -66 -150 -35 -74 -52 -99 -69 -103 -16 -4 -95 20 -231 69 -358 131 -487 161 -673 160 -360 -2 -550 -139 -598 -430 -29 -179 14 -309 147 -443 99 -99 162 -140 476 -305 486 -256 597 -321 679 -397 154 -141 272 -337 322 -535 81 -321 41 -719 -103 -1008 -196 -392 -618 -706 -1127 -836 -350 -90 -881 -103 -1000 -25 -15 10 -27 28 -30 48 -33 219 -65 374 -107 525 -29 105 -48 191 -44 203 3 11 17 23 30 26 13 3 120 -2 237 -11 574 -47 949 27 1153 228 104 103 152 208 170 372 21 200 -90 406 -301 556 -44 31 -250 154 -459 274 -209 120 -403 233 -431 251 -73 49 -195 180 -261 281 -145 223 -201 469 -175 777 28 341 140 600 353 821 193 200 429 325 723 386 83 17 162 25 341 37 11 1 81 -3 156 -8z" transform="translate(0.000000,700.000000) scale(0.100000,-0.100000)" /></g></svg>